<?xml version="1.0" encoding="utf-8"?>
<!-- Generator: Adobe Illustrator 19.2.1, SVG Export Plug-In . SVG Version: 6.00 Build 0)  -->
<svg version="1.1" xmlns="http://www.w3.org/2000/svg" xmlns:xlink="http://www.w3.org/1999/xlink" x="0px" y="0px"
	 viewBox="0 0 595.3 159.4" style="enable-background:new 0 0 595.3 159.4;" xml:space="preserve">
<style type="text/css">
	.st0{fill:#FFED00;}
	.st1{fill:none;stroke:#000000;stroke-width:0.5;stroke-linecap:round;stroke-miterlimit:10;}
	.st2{fill:none;stroke:#000000;stroke-width:0.5;stroke-linecap:round;stroke-linejoin:round;stroke-miterlimit:10;}
	.st3{fill:none;stroke:#000000;stroke-width:0.5;stroke-miterlimit:10;}
</style>
<g id="Capa_2">
	<polygon class="st0" points="275.2,27 275.7,29.1 276.3,30.5 277.1,31.7 278.1,32.4 278.6,32.2 279,31.6 279.1,30.5 278.7,29.4 
		278,28.5 277.1,27.8 276.3,27.2 	"/>
	<polygon class="st0" points="320.1,27 319,27.3 318.1,27.8 317.3,28.4 316.8,29.1 316.2,30.5 316.3,31.6 317.1,32.4 317.9,32.1 
		318.7,31 319.4,29.7 319.8,28.8 319.9,27.9 	"/>
</g>
<g id="Capa_1">
	<g>
		<g>
			<path class="st1" d="M297.8,48.3c-4.2,1.3-30.9,2-32.4,38.9c-1.5,36.9,30.1,39.9,30.1,39.9s6.5,24,0.4,25.9
				c-1.9,0.6-3.7-5.4-4.5-6.7c-0.7-1.1,3.1-3.8,2.1-4.6c-3.7-3.1-11.3,13.4-16.8,9.5c0,0,4.6-2.4,2.7-2.7c0,0-9.8-0.9-4.6-8.2
				c0,0,6.7,11.6,17.7-3c0,0-12.2,6.1-17.7,0c-5.5-6.1-9.6,0.7-10.1,3.4c-0.8,4.5,0.6,6.7,16.8-7.6c16.2-14.3,18.4-5.8,18.4-5.8"/>
			<path class="st2" d="M297.5,6.5l-3.6,4.9c-3.4-0.9-3,3.7-3,3.7c-4.3-0.3,0,2.7-4.6,4.9c-4.6,2.1-4.2,7.8-1.2,4.9s5.5,3.4,5.5,3.4
				s-8.8,5.2-5.2,10.4c3.7,5.2,5.5-0.6,5.5-0.6c-11.6-13.1-13.4-16.8-15.2-13.7c-1.8,3,2.1,10.7,3.4,7.3s-6.1-7.3-7-2
				s7.9,8.8,7.9,8.8s17.1-16.2,17-4.6c-0.1,11.6,0.6,10.4-1.8,9.8c-9.9-2.7-28.8,8.6-31.7,26.2s0,12.5,0,12.5s4.5-25,1.5-25.3
				s-5.5,2.4-5.5,2.4s-0.6,4,2.7,3.7c3.4-0.3,10.1-13.1,10.1-13.1c-12.8,3.7-17.4,11-17.4,11c-2.6-7.2,24.1-20.1,24.1-20.1
				c-11.9,4-13.4,0-13.4,0c-1.5,0.9,0.3,4.6,0.3,4.6c-3.4,2.1-4.9-2.4-4.9-2.4c-2.7,2.4,0,4.6,0,4.6c-12.5,6.1-9.1,16.8-9.1,16.8
				s11.6,0.9,9.8,3c-1.8,2.1-7.3,0-7.3,0l9.1,25.3c0,0,3,17.7,2.4,20.1c-0.6,2.4-3,5.9-1.8,7.3c0.7,0.8,4.3-0.3,4.3-0.3
				s1.5-0.9-4.3-3s-3.7-16.8-3.7-16.8l3.7,9.5c0,0-1.8,4.6-5.5,1.5c-3.7-3,0.9-17.4,0.9-17.4c-6.4,9.1-14.9,4-14.9,4
				c21-4.9,5.5-28.7,5.5-28.7s5.5,9.5,0.3,18.9c-5.2,9.5-9.8,4.9-9.8,4.9c-3.4,2.1-0.6,4.9-0.6,4.9c-2.4,3.4,1.5,4.3,1.5,4.3
				c4,9.5,11.3,0,11.3,0c-7.3,20.7,7.9,19.5,7.9,19.5c-9.8,4,3.4,13.7,3.4,13.7h-94.2H19.1H0"/>
		</g>
		<g>
			<path class="st3" d="M297.5,48.4c4.7,1,30.9,1.9,32.4,38.8c1.5,36.9-30.1,39.9-30.1,39.9s-6.5,24-0.4,25.9
				c1.9,0.6,3.7-5.4,4.5-6.7c0.7-1.1-3.1-3.8-2.1-4.6c3.7-3.1,11.3,13.4,16.8,9.5c0,0-4.6-2.4-2.7-2.7c0,0,9.8-0.9,4.6-8.2
				c0,0-6.7,11.6-17.7-3c0,0,12.2,6.1,17.7,0c5.5-6.1,9.6,0.7,10.1,3.4c0.8,4.5-0.6,6.7-16.8-7.6c-16.2-14.3-18.4-5.8-18.4-5.8"/>
			<path class="st2" d="M297.5,6.5l3.9,4.9c3.4-0.9,3,3.7,3,3.7c4.3-0.3,0,2.7,4.6,4.9c4.6,2.1,4.2,7.8,1.2,4.9s-5.5,3.4-5.5,3.4
				s8.8,5.2,5.2,10.4c-3.7,5.2-5.5-0.6-5.5-0.6c11.6-13.1,13.4-16.8,15.2-13.7c1.8,3-2.1,10.7-3.4,7.3s6.1-7.3,7-2s-7.9,8.8-7.9,8.8
				s-17.1-16.2-17-4.6c0.1,11.6-0.6,10.4,1.8,9.8c9.9-2.7,28.8,8.6,31.7,26.2s0,12.5,0,12.5s-4.5-25-1.5-25.3
				c2.9-0.3,5.5,2.4,5.5,2.4s0.6,4-2.7,3.7c-3.4-0.3-10.1-13.1-10.1-13.1c12.8,3.7,17.4,11,17.4,11c2.6-7.2-24.1-20.1-24.1-20.1
				c11.9,4,13.4,0,13.4,0c1.5,0.9-0.3,4.6-0.3,4.6c3.4,2.1,4.9-2.4,4.9-2.4c2.7,2.4,0,4.6,0,4.6c12.5,6.1,9.1,16.8,9.1,16.8
				s-11.6,0.9-9.8,3c1.8,2.1,7.3,0,7.3,0l-9.1,25.3c0,0-3,17.7-2.4,20.1c0.6,2.4,3,5.9,1.8,7.3c-0.7,0.8-4.3-0.3-4.3-0.3
				s-1.5-0.9,4.3-3s3.7-16.8,3.7-16.8l-3.7,9.5c0,0,1.8,4.6,5.5,1.5c3.7-3-0.9-17.4-0.9-17.4c6.4,9.1,14.9,4,14.9,4
				c-21-4.9-5.5-28.7-5.5-28.7s-5.5,9.5-0.3,18.9c5.2,9.5,9.8,4.9,9.8,4.9c3.4,2.1,0.6,4.9,0.6,4.9c2.4,3.4-1.5,4.3-1.5,4.3
				c-4,9.5-11.3,0-11.3,0c7.3,20.7-7.9,19.5-7.9,19.5c9.8,4-3.4,13.7-3.4,13.7h94.2h169.8"/>
		</g>
	</g>
	<g>
	</g>
	<g>
	</g>
	<g>
	</g>
	<g>
	</g>
	<g>
	</g>
	<g>
	</g>
</g>
</svg>
