<?xml version="1.0" encoding="utf-8"?>
<!-- Generator: Adobe Illustrator 19.2.1, SVG Export Plug-In . SVG Version: 6.00 Build 0)  -->
<svg version="1.1" id="Capa_1" xmlns="http://www.w3.org/2000/svg" xmlns:xlink="http://www.w3.org/1999/xlink" x="0px" y="0px"
	 viewBox="0 0 32 32" style="enable-background:new 0 0 32 32;" xml:space="preserve">
<style type="text/css">
	.st0{fill:none;stroke:#1D1D1B;stroke-linecap:round;stroke-linejoin:round;stroke-miterlimit:10;}
</style>
<path class="st0" d="M3,20.6c0,0,0.5,0.2,3.6-6.2v6.1c0,0,0.8-5.5,3.9-6.5c0,0,1.4-0.7,0.9,6c0,0,0.9-5,2.8-5.7s1.7,4.7,1.7,4.7
	s-0.4,2.5,2.6,0.1s3.1-4.7,3.1-4.7l2.4,6c0,0,2.7-4.9,2.6-6.1c-0.1-1.1,0-2.2-2.8-3c-1.4-0.4-0.2,1.6,1,2.6s2.4,2.1,2.4,2.1l2.8,0.9
	"/>
<g>
</g>
<g>
</g>
<g>
</g>
<g>
</g>
<g>
</g>
<g>
</g>
</svg>
