<?xml version="1.0" encoding="utf-8"?>
<!-- Generator: Adobe Illustrator 19.2.1, SVG Export Plug-In . SVG Version: 6.00 Build 0)  -->
<svg version="1.1" xmlns="http://www.w3.org/2000/svg" xmlns:xlink="http://www.w3.org/1999/xlink" x="0px" y="0px"
	 viewBox="0 0 595.3 103.3" style="enable-background:new 0 0 595.3 103.3;" xml:space="preserve">
<style type="text/css">
	.st0{fill:#FFC500;}
	.st1{fill:none;stroke:#1D1D1B;stroke-width:0.5;stroke-miterlimit:10;}
</style>
<g id="Capa_2">
	<path class="st0" d="M297.7,14.6l-0.8-1.8l-1-2.2c0,0-0.5-1.3-0.5-1.4c0-0.1,0.2-1.1,0.2-1.1l1.5-0.6l0.8,1.1l0.6,1.2l0.7-1.1
		c0,0,1-0.4,1.1-0.4c0.1,0,1.2,0.4,1.2,0.4l0.2,1.3l-0.6,1.2l-1.3,1.4l-1.1,1.3L297.7,14.6z"/>
</g>
<g id="Capa_1">
	<path class="st1" d="M0,86.6L257.4,86c0,0,9.4,2.5,7.1-16.8c-0.7-6.1-0.2-24-0.2-24.5c0-0.6-1.5-4,4.4-7.3c5.8-3.3,5-3.5,7-3.9
		c1.4-0.3,3.4,0.5,2-5.5c-0.2-0.8-0.2-2.6-0.1-3.5c0.1-1,2-6.1-4.1,0.1c-1,1-8.9,6.5-4.9-3.1c4-9.7,7.2-10.4,10.4-9.1
		c1.7,0.7,5,4.3-0.2,7.4c-0.7,0.5-3.3,0.1-4.4-1.1c-0.8-0.8-0.4-2.5-0.4-2.5s-1.3-2.2,12.7-2l6,0.1c0,0,5.2-0.3,4,4.2
		c0,0-1.6,1.8-2.1-0.8c0,0-0.4-0.2,2.8-1.9l3.6-4.1c0,0,2.2-2.6-0.1-3.4c0,0-1.5-0.4-2.1,1.9c0,0-0.4-3-2.3-2.4
		c-1.8,0.6-0.4,3-0.4,3l2.1,4.6c0,0,1.7,3.7,1.1,4.9c-0.6,1.2-3.3,1.6-6.7,1.7l-4.5,0.1c0,0-1.8-0.2-1.3,1.3c0,0,2.6,6.3,9.5,8.8
		c0,0,5.3,0.8,1.5-3.7C293.9,23.6,286,27,286,27s-0.9,0.7-0.1,4.1s-1.6,3.5-1.6,3.5s-2.7-0.4-1.7-3s16.8,6.8,16.8,6.8
		s2.1,1.3,1.8,5.5s0.2,19.8,0.2,19.8l0.2,12.1c0,0-0.7,8.7,8.4,8.7c9,0,285.3,0.1,285.3,0.1"/>
	<g>
	</g>
	<g>
	</g>
	<g>
	</g>
	<g>
	</g>
	<g>
	</g>
	<g>
	</g>
</g>
</svg>
