<?xml version="1.0" encoding="utf-8"?>
<!-- Generator: Adobe Illustrator 19.2.1, SVG Export Plug-In . SVG Version: 6.00 Build 0)  -->
<svg version="1.1" xmlns="http://www.w3.org/2000/svg" xmlns:xlink="http://www.w3.org/1999/xlink" x="0px" y="0px"
	 viewBox="0 0 595.3 182.6" style="enable-background:new 0 0 595.3 182.6;" xml:space="preserve">
<style type="text/css">
	.st0{fill:#FFDE00;}
	.st1{fill:none;stroke:#000000;stroke-width:0.5;stroke-linecap:round;stroke-linejoin:round;stroke-miterlimit:10;}
</style>
<g id="Capa_2">
	<polyline class="st0" points="242.6,80.1 243.2,83.3 245.3,86.7 247,87.8 248.9,87.8 249.3,85.9 248.8,83.9 247.8,81.2 246.7,78.7 
		245.2,75.6 243.3,72.1 242.7,76.4 	"/>
	<polygon class="st0" points="273.7,68.3 272.9,70.3 272.3,74.8 272.3,77.8 272.9,81.2 274,83.1 276,84.6 277.4,84.9 278.2,84.3 
		278.6,83 278.5,81.7 278.2,79.8 275.9,72.7 	"/>
	<polygon class="st0" points="252.7,104.1 252.4,107.6 252.4,111.1 253,113.8 253.7,115.8 254.7,117.4 256.2,118.8 257.6,119.5 
		258.8,119.6 259.4,118.8 259.4,117.5 258.8,115.6 258,113.4 257,111.3 255.9,109.4 254.7,107 	"/>
	<polygon class="st0" points="282.9,104.1 282.4,107.8 282.4,110 282.4,112.2 282.6,114.1 283.6,116.5 284.9,118.3 286.1,119.1 
		287.2,119.5 288.4,119.5 289,118.6 289,117.2 288.5,115.7 288,114.1 287.2,112 286,109.5 284.7,107 283.6,104.9 	"/>
</g>
<g id="Capa_1">
	<path class="st1" d="M0,137.4h224.6c0,0,2.9,5.8-0.2-13.7c-1.5-9.2-0.2-14.8-0.8-23.1c-0.5-5.8-1.9-13.1-6-23.9
		c-2.4-6.4-5.8-14.1-10.5-23.6c0,0,56.8,3.7,95.3-15.8c0,0,1,38.3,5.4,38.1c4.4-0.2-23.6,5.3-33.8-7.6c0,0-6.3,12.6-30.5,4.2
		c0,0-13.2,11-26.4,3.1"/>
	<path class="st1" d="M223.7,103.7c0,0,19.1,22.1,29.1,0c0,0,17.7,17,30.5,0c0,0,6.3,12.1,12.1,0c0,0,0.5,6.8-8.9,26.3
		c0,0-39.2,4.2-62.8,18.4l2.1-13.2"/>
	<path class="st1" d="M295.4,68.9c0,0,5,17.2,0,34.8s-6.3,24.8-13.2,34.5c0,0,42.6-1.9,68.9,15.5c0,0-5.8-34.7,15.8-70.5
		C367,83.2,325.3,88.7,295.4,68.9z"/>
	<path class="st1" d="M243.3,72.1c0,0-3.2,12.9,3.7,15.7S243.3,72.1,243.3,72.1z"/>
	<path class="st1" d="M273.8,67.9c0,0-4.7,14,2.2,16.7S273.8,67.9,273.8,67.9z"/>
	<path class="st1" d="M252.8,103.7c0,0-2.4,12.9,4.5,15.7C264.1,122.1,252.8,103.7,252.8,103.7z"/>
	<path class="st1" d="M283,103.7c0,0-3.2,12.9,3.7,15.7S283,103.7,283,103.7z"/>
	<path class="st1" d="M207,53.2c1.1,1.7-10.3,17.5-8.9,21.8c6.3,19.5,10.1-20.2,9.2-21.3c0,0-8.9,23.7-1,28.8c0,0,2,0.1,1-28.8"/>
	<path class="st1" d="M295.4,68.9c0,0,25.8,19.5,22.1,34.8c-3.7,15.2-16.3-2.5-10.6-17.1c5.1-13,31.6,3.5,31.2,1.5
		c0,0,10.9,1.9,3.6,19.3c-7.4,17.4-17.6-1.5-12.6-13.2s35.9-7.6,35.9-7.6"/>
	<path class="st1" d="M282.3,138.2c0,0,34.7-2.6,38.9-18.5c4.2-16-24.2-3.3-14.3,6.4c9.5,9.4,13.3,9.3,14.7,9.7
		c0,0,20.1,2.6,20.1-9.7s-12.2-2.4-10.4,3.4c1.8,5.8,19.5,20.9,19.5,20.9"/>
	<line class="st1" x1="350.6" y1="138.2" x2="595.3" y2="138.2"/>
	<path class="st1" d="M302.3,37.4C301.8,38.1,291,55.5,301,54C308.7,52.9,302.3,37.4,302.3,37.4z"/>
	<path class="st1" d="M302.3,37.4c0,0-4.8,17.9,2.2,20.7C311.5,60.8,302.3,37.4,302.3,37.4"/>
	<g>
	</g>
	<g>
	</g>
	<g>
	</g>
	<g>
	</g>
	<g>
	</g>
	<g>
	</g>
</g>
</svg>
