<?xml version="1.0" encoding="utf-8"?>
<!-- Generator: Adobe Illustrator 19.2.1, SVG Export Plug-In . SVG Version: 6.00 Build 0)  -->
<svg version="1.1" xmlns="http://www.w3.org/2000/svg" xmlns:xlink="http://www.w3.org/1999/xlink" x="0px" y="0px"
	 viewBox="0 0 386 397.5" style="enable-background:new 0 0 386 397.5;" xml:space="preserve">
<style type="text/css">
	.st0{fill:#373737;}
	.st1{fill:#DCD0D0;}
	.st2{fill:#C0B283;}
	.st3{fill:#1D1D1B;}
	.st4{fill:#FFC374;}
	.st5{fill:#FFB16A;}
	.st6{fill:none;stroke:#1D1D1B;stroke-miterlimit:10;}
	.st7{fill:#FF795B;}
	.st8{fill:#FF5E5B;}
	.st9{fill:#FFFFFF;}
	.st10{fill:#B6B6B6;}
	.st11{fill:#F4F4F4;}
</style>
<g id="Capa_2">
	<rect x="202.7" y="163.2" class="st0" width="144.5" height="186.7"/>
	<rect x="108" y="21.8" class="st1" width="195.4" height="260.1"/>
	<rect x="47.9" y="87" class="st2" width="154.8" height="239.4"/>
</g>
<g id="Capa_1">
	<g>
		<path class="st3" d="M216.7,51.2c-4-6.1-11.8-8.7-19-8.3c-2.1,0.1-4.2,0.5-6.2,1c-4.9,1.3-9.7,3.6-14.2,6
			c-3.2,1.7-6.4,3.7-9.4,5.8c-7.2,5.2-13.4,11.6-15.9,20c-0.6,1.9-0.9,3.8-1.1,5.8c-0.7,5.9-0.3,11.9-1.3,17.8
			c-1.3,7.3-4.8,13.9-8.3,20.6c-2.8,5.4-5.6,10.9-7.2,16.8c-3.3,12.6-0.5,24.9,3.9,37.2c6.5,18.1,16.5,36.2,16.5,55.2
			c0,5.1-0.7,10.4-1.1,15.5c-0.6,7.8-0.5,15.3,3.4,21.8c2.6,4.2,6.7,7.4,11,9.8c3.5,1.9,7.2,3.3,11.1,4.3c9.4,2.3,19.6,1.7,28.6-1.9
			c6.9-2.7,13.5-7.1,20.3-10.4c6.7-3.3,13.6-5.4,20.7-3.5c4.4,1.1,8.5,3.8,13,4.1c9.8,0.7,17.3-9.9,17.4-19.7
			c0.1-9.8-4.9-18.9-9-27.8c-4.1-8.9-7.7-19-4.6-28.4c1.3-4,3.8-7.6,5.7-11.4c4.9-9.6,6.4-21,4.1-31.5c-1.8-8.1-5.6-15.7-8-23.6
			c-2.7-9.2-3.4-18.9-4.1-28.5c-0.3-3.3-0.5-6.7-0.9-10c-0.5-4.3-1.2-8.6-2.2-12.8c-2.1-8.5-5.6-16.6-11.6-22.8
			c-9-9.3-25-12.9-35.1-4.9"/>
		<g>
			<path class="st3" d="M218.9,49.9c-13.8-19-40.5-5.5-54.8,5.6c-7.8,6.1-13.9,14-15.4,23.9c-0.9,5.4-0.6,10.9-1.1,16.4
				c-0.8,7.1-3.6,13.5-6.8,19.8c-5.6,11-10.9,21.5-10.5,34.3c0.4,12.7,5.2,24.7,9.9,36.3c4.7,11.7,10,23.5,11.5,36.1
				c1.5,12-2.5,24.1-0.4,36c3.8,21.9,31.6,29.2,50.5,24.8c12.2-2.8,21.8-11.5,33.6-15.2c7-2.2,12.5-0.9,19.1,1.6
				c4.7,1.8,9.4,2.7,14.2,0.7c7.6-3.2,12.3-11.6,12.9-19.7c0.8-11.5-5.5-21.9-10-32c-2.6-5.8-5-12.4-4.7-18.8
				c0.3-7,4.4-12.2,7.2-18.4c4.6-9.9,5.9-21.2,3.6-31.9c-1.4-6.4-4.1-12.4-6.3-18.6c-2.6-7.2-4-14.5-4.8-22.1
				c-1.4-13.3-1.4-26.9-5.7-39.7c-3.5-10.5-9.9-20.4-20.3-25.3c-9.2-4.3-20.1-4.6-28.5,1.6c-2.6,1.9-0.1,6.2,2.5,4.3
				c7.7-5.7,17.8-5,25.9-0.3c9,5.3,14,15.1,16.6,24.9c2.9,10.7,3.1,21.8,4.2,32.7c1,10.6,3.3,20.3,7.1,30.2
				c4.2,11,6.9,21.7,4.1,33.4c-2.3,9.4-9.3,17-10.5,26.6c-1.2,9.8,2.9,19.2,7,27.8c4.4,9.4,10.3,20.6,6.1,31.1
				c-1.6,4.1-4.7,8.2-9,9.6c-5.6,1.9-10.7-1.7-16-3.2c-9.6-2.8-18.9,1-27.4,5.5c-10,5.3-19.3,11-31,11.3c-10.5,0.3-22.3-3-29.9-10.6
				c-8.2-8.3-6.3-20.4-5.3-30.9c1-10.9-0.2-21-3.4-31.5c-6.5-20.9-21.1-42.4-17.4-65.2c2-12,9.6-21.9,13.9-33
				c4.2-10.8,1.5-22.5,5.3-33.2c4-11.2,15.1-18.4,25.2-23.7c10.3-5.5,26.1-10.5,34.5,1.1C216.4,55,220.8,52.5,218.9,49.9L218.9,49.9
				z"/>
		</g>
	</g>
	<path class="st3" d="M256.1,113.4c0,38.4-23.7,69.4-53,69.4s-53-31.1-53-69.4s23.7-66.5,53-66.5S256.1,75.1,256.1,113.4z"/>
	<g>
		<path class="st4" d="M203.1,185.3L203.1,185.3c-6.5,0-11.7-5.3-11.7-11.7v-9.4c0-5.3,4.3-9.6,9.6-9.6h4.4c5.3,0,9.6,4.3,9.6,9.6
			v9.4C214.8,180,209.5,185.3,203.1,185.3z"/>
		<path class="st5" d="M195.1,147.5h-4.4v27.6c0,1.2,1,2.2,2.2,2.2h0c1.2,0,2.2-1,2.2-2.2V147.5z"/>
		<ellipse class="st5" cx="203.1" cy="110.9" rx="42.9" ry="52.3"/>
		<path class="st4" d="M250.2,110.9c0-2.8-1.6-5.4-4.3-7.8c-1.2-27.6-19.9-49.5-42.8-49.5c-22.7,0-41.3,21.6-42.8,48.8
			c-3.3,2.5-5.2,5.4-5.2,8.4c0,3.5,2.5,6.7,6.7,9.5c5.1,21.9,21.6,37.9,41.2,37.9c19.8,0,36.4-16.3,41.4-38.5
			C248.1,117.2,250.2,114.1,250.2,110.9z"/>
		<path class="st3" d="M203.1,47"/>
		<path class="st6" d="M260.1,70.3C241.2,15.2,214.2,47,214.2,47s-30.7-38.2-62.6,28.2"/>
		<path class="st6" d="M150,87c0,0-23.4,49.1-17.4,59.4"/>
		<path class="st6" d="M259.9,75.2c0,0,21.1,68.8,15.2,74.9"/>
		<path class="st6" d="M140.9,185.3c0,0,4.4,16.2,6.7,32.4c2.1,15.3,1.9,30.6,4,32.4"/>
		<path class="st6" d="M276.2,174.5c0,0-13.4,34,2.8,61.5"/>
		<ellipse class="st3" cx="192.8" cy="107.9" rx="3.5" ry="4.8"/>
		<ellipse class="st3" cx="212.4" cy="107.9" rx="3.5" ry="4.8"/>
		<ellipse class="st5" cx="202.1" cy="121.7" rx="3.7" ry="1.8"/>
		<g>
			<path class="st7" d="M203.1,145.1L203.1,145.1c-0.9,0-1.8-0.1-2.7-0.3c-5.6-1.2-9.8-6.2-9.8-12.1v-0.4h24.9v0.4
				C215.5,139.5,209.9,145.1,203.1,145.1z"/>
			<path class="st8" d="M200.4,144.8c0,0,3.4-6.6,6-3.6c0,0,2.3-2.5,4.8,0.8C211.2,142,207.2,146,200.4,144.8z"/>
			<path class="st9" d="M190.6,132.3c0,0,11.7,5.1,24.9,0H190.6z"/>
			<path class="st9" d="M195.1,142.1c0,0,5.7,4.2,15.4,0.5C210.4,142.6,203.1,148.4,195.1,142.1z"/>
		</g>
		<path class="st5" d="M215.8,68c0,0-11.4,25.5-34.4,22.1c0,0-9.5,3.7-17.8,8.9c-8.3,5.2,6-15.5,6-15.5L215.8,68z"/>
		<g>
			<path class="st3" d="M217.7,64.1c-7.2,3.8-10.4,12.6-17.3,17c-5.7,3.6-12.9,3.5-19.4,5.2c-7.5,1.9-14.4,6.4-19.3,12.4
				c-1.2,1.5-3.1,3.2-4.6,2.1c-0.8-0.6-1-1.7-1.1-2.6c-1.5-16.8,7.8-34,22.7-41.9c6.9-3.7,14.7-5.4,22.4-6.5c5.9-0.8,12.8-1,17,3.2"
				/>
			<g>
				<path class="st3" d="M216.4,61.9c-5,2.9-8.1,7.5-11.9,11.9c-4.6,5.3-9.8,7.4-16.6,8.5c-6.5,1.1-12.6,2.4-18.3,5.9
					c-2.4,1.5-4.6,3.2-6.6,5.1c-1.1,1.1-2.1,2.3-3.1,3.4c-1.8,2.1-1.4,1.5-1.5-0.9c-0.5-12.9,5.7-25.9,15.8-33.8
					c5.9-4.7,13.1-7.2,20.4-8.7c6.6-1.4,16-3.7,21.7,1.3c2.4,2.1,6-1.4,3.5-3.5c-8.9-7.9-24.3-3.9-34.4-0.5
					c-11.5,3.9-21.1,11.7-26.8,22.5c-2.6,5-4.3,10.4-5,16c-0.4,3.6-1.7,11,1.9,13.5c4.5,3.3,8.4-3.2,11-5.8c5.5-5.3,12.2-8,19.6-9.3
					c6.5-1.1,12.9-2.1,18.1-6.5c5.4-4.6,8.4-11.3,14.6-15C221.7,64.6,219.2,60.3,216.4,61.9L216.4,61.9z"/>
			</g>
		</g>
		<path class="st5" d="M215.8,68c0,0,21.8,21.8,24.7,27.5h9.7L215.8,68z"/>
		<g>
			<path class="st3" d="M216,56.3c-1.2,5.6,2.6,11.2,6.9,15c4.3,3.8,9.6,6.7,13,11.3c2.9,3.8,4.4,8.4,6.8,12.5c2.4,4.1,6.3,7.9,11,8
				c-1.7-12-3.7-24.5-11.1-34c-1.8-2.2-3.8-4.2-5.9-6.2c-5.5-5.2-12.5-10.3-19.9-8.7"/>
			<g>
				<path class="st3" d="M213.5,56.3c-1.7,13.1,11.8,18.2,19.2,26.2c7.3,8,8.1,21.7,21.1,23.1c1.8,0.2,2.6-1.7,2.4-3.2
					c-1.7-12.2-3.8-24.9-11.6-34.8c-6.7-8.5-16.9-17.6-28.4-15.8c-3.2,0.5-1.8,5.3,1.3,4.8C228,55,239,66.9,243.7,75.1
					c4.9,8.7,6.3,18.9,7.7,28.7c0.8-1.1,1.6-2.1,2.4-3.2c-9.8-1-11.8-15.4-17.6-21.6c-6.3-6.8-19.2-11.5-17.7-22.7
					C219,53.2,214,53.2,213.5,56.3L213.5,56.3z"/>
			</g>
		</g>
		<path class="st10" d="M162.1,181c0,0-10.4,9.9-7.7,44c1.6,20.8-1.5,83.6-1.5,83.6h4.4L162.1,181z"/>
		<path class="st11" d="M190.7,172.5c0,0,11.6,23.7,24,0c0,0,25.7,2,31.2,7.8c6.9,7.3,7.7,29.4,7.9,39.5c0.2,13.8,0,55.1,0,55.1
			l-1.5,33.7h-95c0,0,0-27.6,0-37c0.1-12.9,0.7-38.9,0.4-51.8c-0.3-9.9-1.8-31.1,4.4-38.8C165.8,176.3,190.7,172.5,190.7,172.5z"/>
	</g>
	<g>
	</g>
	<g>
	</g>
	<g>
	</g>
	<g>
	</g>
	<g>
	</g>
	<g>
	</g>
</g>
</svg>
