<?xml version="1.0" encoding="utf-8"?>
<!-- Generator: Adobe Illustrator 19.2.1, SVG Export Plug-In . SVG Version: 6.00 Build 0)  -->
<svg version="1.1" id="Capa_1" xmlns="http://www.w3.org/2000/svg" xmlns:xlink="http://www.w3.org/1999/xlink" x="0px" y="0px"
	 viewBox="0 0 595.3 142.9" style="enable-background:new 0 0 595.3 142.9;" xml:space="preserve">
<style type="text/css">
	.st0{fill:#FDC50A;}
	.st1{fill:none;stroke:#1E1E1C;stroke-width:0.5;stroke-miterlimit:10;}
</style>
<path class="st0" d="M281.4,62.4l-0.7-2.1l-0.5-2.1l-0.4-2.1l-0.3-2.1l-0.2-1.8l-0.2-1.9l-0.2-1.8l-0.1-1.5l-0.1-1.8l-0.1-1.9l0-1.3
	l0-1.2l0-1.2v-1.2l0.2-1.6L279,36l0.2-1.1l0.3-1.5l0.3-1.2l0.6-1.8l0.6-1.3l1-1.5l0.9-1l0.8-0.8l0.8-0.4l0.4,0.2l0.6,1.4l0.3,1.4
	l0.3,1.8l0.3,2.2l0.2,1.3l0.2,1.7l0.3,1.9l0.2,1.4l0.2,2.1l0.1,1.8l0.1,2.9l0,2.1V50l-0.1,1.7l-0.2,2l-0.3,2.1l-0.3,1.6l-0.6,2.2
	l-0.7,1.8c-0.7,1-0.7,1-0.7,1l-1,0.1l-0.8-0.1l-1.2,0.1l-0.5,0.3L281.4,62.4z"/>
<path class="st1" d="M0,106h264.6c0,0,2.3-0.1,3.4,1.1c1.1,1.1,7.2,2.3,7.2,2.3s5.3,1.1,17,0c11.7-1.1,7.9-3.3,7.9-3.3
	s-4.4-3.1-3.6-6.7c0.8-3.6,1.1-7.8,1.1-7.8l-0.9-9.7l-0.4-10c0,0-0.6-6-1.1-6.4c-0.6-0.4-0.9-3.6-3.6-1c-2.6,2.6-8.5,0.2-8.5,0.2
	s-2.6-0.2-4-13.2c-1.3-13.1-0.4-20.9,4.2-25.4c1.9-1.9,2.3-0.9,3.8,10s1.2,29.8-5.3,27.2c-1.1-0.4,0.7-1.9,4.7,0
	c4,1.9,7.8,1.2,1.9,4.6c0,0-2.3,1.5-8.9-0.8c0,0,0.6-1.7-8.1,1.9c0,0-10.2,3.2-7.2-3.6c0,0,2.9-2.7,11.2,0c8.3,2.7,15.5-0.1,17,2.5
	c0,0,0.1,3.4-0.6,5.2c-0.8,2.1-4.2,3.3-4.5-2.6c0,0-1.5-3.3-4.4,1.1c0,0-1.3,1.1-0.8,7c0.5,5.9-6.1,4.6-7.5-5.7
	c-0.1-1.1-2.3-4.9-4.2,1.4c0,0-1.1,1.5-2.8,1.3c-1.7-0.2-2.3-5.9-2.3-5.9s2.8-4.4,2.1,1.7c-0.8,6.1,0.2,9.7-0.4,12.9
	c-0.6,3.2-1.4,5.8-1.7,7.8c-0.3,1.5-0.5,4.7-0.4,6.2c0.1,1.5,1.7,6.6-2.8,5.3c-4.5-1.3-6.7,0.2-8.7,1.1c-1.4,0.7-8.9,3,0.2,6.2
	c9.1,3.2,11.8,3.8,15.9,4.3c3.8,0.4,6.4,0.4,15.5-0.1s9.8-0.5,12.6-2.1c2.1-1.2,6-4.2,7.5-6.3l53.6,0.7l236.4-0.9"/>
<g>
</g>
<g>
</g>
<g>
</g>
<g>
</g>
<g>
</g>
<g>
</g>
</svg>
