<?xml version="1.0" encoding="utf-8"?>
<!-- Generator: Adobe Illustrator 19.2.1, SVG Export Plug-In . SVG Version: 6.00 Build 0)  -->
<svg version="1.1" id="Capa_1" xmlns="http://www.w3.org/2000/svg" xmlns:xlink="http://www.w3.org/1999/xlink" x="0px" y="0px"
	 viewBox="0 0 50 50" style="enable-background:new 0 0 50 50;" xml:space="preserve">
<style type="text/css">
	.st0{fill:#FFFFFF;stroke:#1D1D1B;stroke-linecap:round;stroke-linejoin:round;stroke-miterlimit:10;}
	.st1{fill:none;stroke:#1D1D1B;stroke-linecap:round;stroke-linejoin:round;stroke-miterlimit:10;}
</style>
<path class="st0" d="M25.7,1.2c-13,0-23.5,10.5-23.5,23.5c0,4.8,1.4,9.2,3.8,12.9l0,0L2.9,48.3l11-3.2L13.8,45
	c3.5,2.1,7.5,3.3,11.9,3.3c13,0,23.5-10.5,23.5-23.5S38.7,1.2,25.7,1.2z"/>
<path class="st1" d="M18.1,12.1c-0.7-0.5-3.5,0-3.5,0s-3.8,1.6-3,7.2c0.8,5.6,5.4,10.5,5.4,10.5s6.4,7.7,13.2,8.6s9-1.8,9-1.8
	s1.6-3.6,1.2-4.7c-0.7-1.8-5.1-3.6-7.1-3.3c-1.2,0.2-3.5,3.4-3.5,3.4s-7.1-1-11.1-9.6c0,0,2.5-1.7,2.7-2.6
	C21.9,17.8,19.8,13.2,18.1,12.1z"/>
<g>
</g>
<g>
</g>
<g>
</g>
<g>
</g>
<g>
</g>
<g>
</g>
</svg>
